<svg width="696" height="171" viewBox="0 0 696 171" fill="none" xmlns="http://www.w3.org/2000/svg">
<g clip-path="url(#clip0_184_292)">
<path d="M659.488 12.1033H625.822V165.799H650.63V124.75H658.746C664.281 124.75 673.528 123.195 681.364 118.808C687.909 115.15 695.72 108.175 695.72 95.7926V47.6108C695.72 23.3923 684.211 12.1154 659.5 12.1154L659.488 12.1033ZM650.63 34.5112H658.831C667.299 34.5112 670.912 39.141 670.912 49.9926V86.3993C670.912 97.4088 666.508 102.33 656.616 102.33H650.618V34.5233L650.63 34.5112Z" fill="#D48832"/>
<path d="M689.39 150.429L679.07 155.969L680.983 159.523L691.303 153.982L689.39 150.429Z" fill="#D48832"/>
<path d="M686.453 144.991L676.133 150.532L678.046 154.085L688.366 148.545L686.453 144.991Z" fill="#D48832"/>
<path d="M683.529 139.541L673.208 145.082L675.121 148.635L685.441 143.094L683.529 139.541Z" fill="#D48832"/>
<path d="M692.315 155.879L681.995 161.419L683.913 164.984L694.233 159.443L692.315 155.879Z" fill="#D48832"/>
<path d="M683.189 169.141L668.066 141.046L670.365 139.806L672.141 143.112L682.471 137.57L680.695 134.265L682.994 133.026L692.934 151.496L696 149.856L671.119 103.606L649.657 115.126L679.733 171L683.189 169.141Z" fill="#D48832"/>
<path d="M187.466 11.4956H186.553V12.407V165.398V166.309H187.466H197.248H198.16V165.398V12.407V11.4956H197.248H187.466Z" fill="#D48832"/>
<path d="M281.795 165.216L250.295 12.006L250.149 11.2769H238.663L238.517 12.006L206.799 165.216L206.567 166.309H218.43L218.576 165.58L226.253 127.898H262.559L270.017 165.568L270.163 166.297H282.026L281.795 165.204V165.216ZM260.88 117.18H228.127L244.406 35.702L260.88 117.18Z" fill="#D48832"/>
<path d="M313.891 107.555L339.453 52.678L339.854 51.8152H338.893H330.717H330.328L330.158 52.1797L306.737 103.74H301.809V52.4228V51.8152H301.201H293.974H293.365V52.4228V165.398V166.006H293.974H301.201H301.809V165.398V111.687H306.737L330.158 165.641L330.316 166.006H330.717H338.893H339.83L339.453 165.155L313.891 107.555Z" fill="#745000"/>
<path d="M415.775 165.398H475.526V139.575H442.505V99.2072H467.703V75.7786H442.505V38.2295H475.526V12.1882H415.775V165.398Z" fill="#D48832"/>
<path d="M492.645 165.398H519.375V99.2072H542.613V75.7786H519.375V38.2295H550.218V12.1882H492.645V165.398Z" fill="#D48832"/>
<path d="M557.871 165.398H617.622V139.575H584.589V99.2072H609.798V75.7786H584.589V38.2295H617.622V12.1882H557.871V165.398Z" fill="#D48832"/>
<path d="M408 139.576V165.398H351.717V23.1492H356.535V45.5572H358.822V41.4255H371.536V45.5572H373.86V12.1033H378.63V63.8213H378.666V139.576H408Z" fill="#D48832"/>
<path d="M371.537 16.0039H358.822V20.2692H371.537V16.0039Z" fill="#D48832"/>
<path d="M371.537 22.3594H358.822V26.6247H371.537V22.3594Z" fill="#D48832"/>
<path d="M371.537 28.7026H358.822V32.9679H371.537V28.7026Z" fill="#D48832"/>
<path d="M371.537 35.0581H358.822V39.3234H371.537V35.0581Z" fill="#D48832"/>
<path d="M130.671 57.3686C130.671 53.6015 129.004 51.317 125.415 50.1018C124.855 49.9196 124.296 49.7251 123.59 49.4821V47.1125C123.59 36.6984 123.554 26.2722 123.639 15.8581C123.639 14.327 123.116 13.4399 121.911 12.6257C116.205 8.74929 110.56 4.77565 104.853 0.911384C104.087 0.388857 103.04 0.0364554 102.116 0.0364554C84.182 -0.0121518 66.2603 -0.0121518 48.3265 0.0364554C47.4627 0.0364554 46.4528 0.315947 45.735 0.802018C39.9436 4.78781 34.2252 8.88296 28.4339 12.8687C27.3267 13.6343 26.913 14.4606 26.9252 15.8095C26.9738 26.2236 26.9495 36.6498 26.9495 47.0639V49.5064C21.8273 50.8917 19.5764 53.0547 19.8076 58.8876C20.0631 65.243 19.9293 71.6227 19.9293 77.9902C19.9293 92.7303 19.8928 107.458 19.8441 122.198C19.8441 124.422 20.5255 126.415 22.4478 127.46C24.1876 128.408 26.2317 129.271 28.154 129.283C51.8792 129.404 75.6044 129.368 99.3296 129.368C107.165 129.368 115.013 129.368 122.848 129.368C127.009 129.368 130.769 126.281 130.732 121.506C130.574 100.131 130.659 78.7679 130.659 57.3929L130.671 57.3686ZM46.9517 6.95082C48.144 6.89007 49.3364 6.92652 50.5287 6.92652C51.648 6.92652 52.7796 6.92652 53.9111 6.92652V6.95082C56.1619 6.95082 58.4128 6.89007 60.6636 6.96298C63.0726 7.04804 64.6422 8.71283 64.6178 11.0095C64.6178 13.3427 63.0726 15.0075 60.6393 15.0561C56.0646 15.129 51.4899 15.129 46.9273 15.0561C44.5548 15.0075 43.034 13.2455 43.0705 10.9002C43.107 8.70068 44.6643 7.08449 46.9638 6.97513L46.9517 6.95082ZM38.5201 92.9369C35.8069 92.9612 33.4466 90.6038 33.4222 87.8696C33.3979 85.2084 35.7947 82.8023 38.5079 82.7415C41.1968 82.6808 43.6058 85.0261 43.6545 87.7481C43.7153 90.6159 41.4401 92.9126 38.5201 92.9369ZM50.6625 92.9126C47.8398 92.9126 45.6985 90.7374 45.7107 87.8453C45.7107 85.0139 47.9007 82.7901 50.6869 82.7415C53.4001 82.6929 55.7239 85.0139 55.7482 87.7724C55.7726 90.7617 53.6556 92.9126 50.6504 92.9126H50.6625ZM73.6821 42.3247C73.6699 46.5171 71.2974 48.911 67.1485 48.911C58.1816 48.911 49.2147 48.9231 40.2478 48.911C35.9164 48.911 33.6777 46.7479 33.6291 42.4827C33.5682 37.3789 33.5804 32.263 33.6291 27.1471C33.6777 22.5902 35.8556 20.4879 40.406 20.4758C44.859 20.4758 49.312 20.4758 53.7651 20.4758C58.2181 20.4758 62.6711 20.4515 67.1242 20.4758C71.346 20.5001 73.6699 22.8089 73.6942 27.0013C73.7186 32.1172 73.7186 37.2209 73.6942 42.3368L73.6821 42.3247ZM70.7864 18.5922C68.7545 18.5679 67.0147 16.7816 67.0268 14.7158C67.0268 12.6865 68.6937 10.9366 70.6282 10.9366C73.0007 10.9366 74.6189 12.5771 74.5824 14.9589C74.5459 17.0854 72.9399 18.6165 70.7985 18.5922H70.7864ZM90.022 6.95082C94.4629 6.87791 98.9038 6.86576 103.332 6.92652C105.863 6.96298 107.506 8.68853 107.457 11.046C107.408 13.452 105.827 15.0196 103.247 15.0804C101.057 15.129 98.8794 15.0804 96.6894 15.0804C94.4994 15.0804 92.3215 15.1168 90.1315 15.0804C87.54 15.0196 85.9583 13.4885 85.9097 11.0703C85.861 8.70068 87.4792 6.99943 90.022 6.96298V6.95082ZM80.1548 10.9609C81.9311 11.0338 83.4885 12.808 83.4641 14.7523C83.4398 16.9274 81.6878 18.6408 79.5221 18.5922C77.3929 18.5436 75.8964 17.1583 75.9572 15.2748C76.0546 12.2855 77.4538 10.8516 80.1548 10.9609ZM76.8454 42.6649C76.8089 37.3546 76.8089 32.0443 76.8454 26.7339C76.8698 22.8454 79.3031 20.4879 83.2451 20.4636C87.759 20.4393 92.285 20.4636 96.7989 20.4636V20.4393H109.963C114.611 20.4393 116.825 22.6023 116.85 27.1957C116.874 32.2995 116.874 37.4154 116.85 42.5313C116.825 46.6507 114.587 48.8988 110.401 48.911C101.301 48.9353 92.1999 48.9353 83.0991 48.911C79.2909 48.8988 76.8698 46.4563 76.8454 42.6649ZM99.5608 92.9369C96.8598 92.8761 94.7671 90.6767 94.7549 87.8939C94.7549 84.9896 97.0544 82.6808 99.8893 82.7537C102.663 82.8266 104.829 85.099 104.805 87.9304C104.78 90.8589 102.529 92.9977 99.5486 92.9369H99.5608ZM111.776 92.949C109.063 92.9004 106.812 90.5187 106.861 87.7359C106.897 85.0504 109.319 82.7051 112.02 82.7415C114.684 82.7658 117.069 85.2084 117.069 87.8818C117.069 90.6888 114.648 92.9977 111.776 92.949Z" fill="#D48832"/>
<path d="M25.38 130.097C25.38 132.054 25.1488 133.937 25.453 135.736C25.745 137.425 26.329 139.199 27.278 140.608C28.9327 143.075 31.6216 143.683 34.4564 143.683C43.4112 143.683 52.3659 143.659 61.3206 143.659C79.8506 143.659 98.3684 143.695 116.886 143.659C120.792 143.659 123.979 141.41 124.758 137.85C125.306 135.347 125.099 132.661 125.22 130.109H25.38V130.097ZM33.9089 140.499C31.4391 140.475 29.3707 138.397 29.3585 135.93C29.3585 133.33 31.4147 131.276 34.0062 131.3C36.5248 131.325 38.5323 133.317 38.5688 135.833C38.6053 138.397 36.4883 140.523 33.9089 140.487V140.499ZM116.752 140.523C114.258 140.548 112.044 138.348 112.056 135.845C112.056 133.293 114.185 131.264 116.825 131.288C119.32 131.312 121.291 133.366 121.291 135.918C121.291 138.385 119.198 140.487 116.752 140.523Z" fill="#745000"/>
<path d="M27.29 164.001C30.7697 161.983 34.2251 159.942 37.7291 157.985C38.2523 157.694 39.0188 157.767 39.6758 157.767C50.5651 157.767 61.4665 157.767 72.3558 157.767C85.216 157.767 98.0763 157.742 110.937 157.803C111.995 157.803 113.163 158.156 114.1 158.666C117.275 160.391 120.366 162.263 123.359 164.426H27.4604C27.3995 164.292 27.3387 164.146 27.29 164.013V164.001Z" fill="#745000"/>
<path d="M0 165.544C8.90608 157.609 17.8122 149.674 26.8764 141.593C29.9789 144.764 33.9818 144.643 38.3375 144.546C36.1353 146.757 34.2738 148.689 32.3514 150.549C27.3996 155.349 22.4355 160.161 17.4106 164.888C16.778 165.483 15.7195 165.921 14.8435 165.933C9.95242 166.03 5.06138 165.981 0.158168 165.981C0.109501 165.836 0.0486671 165.702 0 165.556L0 165.544Z" fill="#D48832"/>
<path d="M123.651 141.581C132.752 149.686 141.682 157.657 151.002 165.957C145.502 165.957 140.49 165.969 135.477 165.933C135.076 165.933 134.589 165.641 134.285 165.337C127.52 158.605 120.78 151.849 114.039 145.08C113.966 145.007 113.991 144.837 113.93 144.485C117.47 144.74 120.804 144.23 123.639 141.568L123.651 141.581Z" fill="#D48832"/>
<path d="M106.167 151.326H44.3359C46.6598 149.698 48.5578 148.276 50.5532 147.012C51.1737 146.624 52.0497 146.502 52.8162 146.502C67.757 146.478 82.6978 146.466 97.6386 146.526C98.6849 146.526 99.8529 146.94 100.765 147.486C102.493 148.531 104.075 149.82 106.167 151.339V151.326Z" fill="#745000"/>
<path d="M53.8504 8.87079H53.3394C53.5097 8.87079 53.68 8.87079 53.8504 8.87079C55.0549 8.87079 56.2715 8.85864 57.4761 8.85864C56.2715 8.85864 55.0549 8.85864 53.8504 8.85864V8.87079Z" fill="#297278"/>
<path d="M62.5251 11.0461C62.4642 12.6258 61.4179 13.1119 59.9457 13.0997C55.9064 13.0633 51.867 13.0754 47.8154 13.0997C46.2946 13.0997 45.0901 12.638 45.0658 10.961C45.0414 9.32052 46.3554 8.93166 47.6816 8.88305C49.5675 8.82229 51.4533 8.85875 53.3392 8.85875H53.8502C55.0547 8.85875 56.2714 8.85875 57.4759 8.85875C58.3154 8.85875 59.167 8.85875 60.0066 8.88305C61.3814 8.91951 62.5737 9.36912 62.5129 11.0339L62.5251 11.0461Z" fill="#D48832"/>
<path d="M105.461 11.1432C105.34 12.5407 104.342 13.1239 102.955 13.1118C101.459 13.0875 99.9621 13.0996 98.4656 13.1118C97.8451 13.1118 97.2124 13.1118 96.5919 13.1118C95.5699 13.1118 94.5357 13.1118 93.5137 13.1118C92.4917 13.1118 91.4575 13.1118 90.4355 13.1118C89.0485 13.1118 88.0873 12.5528 87.99 11.0946C87.9048 9.55132 88.9998 8.94373 90.2774 8.91943C94.5844 8.84652 98.8914 8.84652 103.186 8.91943C104.476 8.94373 105.583 9.63638 105.449 11.1311L105.461 11.1432Z" fill="#D48832"/>
</g>
<defs>
<clipPath id="clip0_184_292">
<rect width="696" height="171" fill="white"/>
</clipPath>
</defs>
</svg>
