<svg width="163" height="71" viewBox="0 0 163 71" fill="none" xmlns="http://www.w3.org/2000/svg">
<g clip-path="url(#clip0_5105_5541)">
<path d="M0.00195312 1.47978H3.91353L18.4553 22.1017V1.47978H23.8565V31.6678H19.5632L5.35926 11.941V31.6712H0.00195312V1.47978ZM26.7885 21.2099C26.7885 15.0453 31.1696 10.4109 36.6113 10.4109C40.2696 10.4109 42.2253 12.5795 42.7759 13.6435V10.8365H48.0893V31.6712H42.7759V28.7797C41.7964 30.3099 40.1412 32.0968 36.6113 32.0968C31.1257 32.0968 26.7885 27.4624 26.7885 21.2099ZM43.1171 21.166C43.1171 17.5078 40.7796 15.0858 37.5909 15.0858C34.8278 15.0858 32.1897 17.2983 32.1897 21.2099C32.1897 25.1215 34.7839 27.459 37.5909 27.459C40.7391 27.459 43.1171 24.9492 43.1171 21.166ZM51.0044 10.8331H56.7874L61.209 26.3105L65.6306 10.8331H71.4135L64.016 31.6678H58.3614L51.0044 10.8331ZM73.143 3.86118C73.143 2.03375 74.6327 0.544106 76.4601 0.544106C78.2875 0.544106 79.7772 2.03375 79.7772 3.86118C79.7772 5.6886 78.2875 7.17824 76.4601 7.17824C74.6327 7.17824 73.143 5.6886 73.143 3.86118ZM73.8253 10.8331H79.0982V31.6678H73.8253V10.8331ZM83.8002 0.628552H89.0731V31.6678H83.8002V0.628552ZM92.5151 21.2099C92.5151 15.0453 96.8962 10.4109 102.338 10.4109C105.996 10.4109 107.952 12.5795 108.503 13.6435V10.8365H113.816V31.6712H108.503V28.7797C107.523 30.3099 105.868 32.0968 102.338 32.0968C96.8523 32.0968 92.5151 27.4624 92.5151 21.2099ZM108.844 21.166C108.844 17.5078 106.506 15.0858 103.318 15.0858C100.554 15.0858 97.9163 17.2983 97.9163 21.2099C97.9163 25.1215 100.511 27.459 103.318 27.459C106.466 27.459 108.844 24.9492 108.844 21.166ZM118.092 10.8331H123.196V13.809C123.919 12.4916 125.875 10.4075 129.192 10.4075C133.614 10.4075 136.762 13.255 136.762 18.4029V31.6678H131.489V19.6358C131.489 16.8288 129.83 15.1703 127.706 15.1703C125.155 15.1703 123.369 17.3389 123.369 20.0614V31.6712H118.096V10.8331H118.092ZM139.937 21.2099C139.937 15.0453 144.274 10.4109 149.76 10.4109C153.418 10.4109 155.374 12.5795 155.925 13.6435V0.628552H161.197V31.6678H155.925V28.7764C154.904 30.3065 153.246 32.0934 149.76 32.0934C144.234 32.0934 139.937 27.459 139.937 21.2065V21.2099ZM156.222 21.166C156.222 17.5078 153.884 15.0858 150.696 15.0858C147.932 15.0858 145.294 17.2983 145.294 21.2099C145.294 25.1215 147.889 27.459 150.696 27.459C153.844 27.459 156.222 24.9492 156.222 21.166Z" fill="#1a1a5e"/>
<path d="M75.3754 51.1108C75.3754 43.6153 80.8983 38.9944 87.9242 38.9944C91.069 38.9944 93.6464 39.9639 94.7171 40.5685V43.514C93.4775 42.7101 91.069 41.6393 88.0222 41.6393C82.2663 41.6393 78.0811 45.3887 78.0811 51.1446C78.0811 56.9005 82.1987 60.7851 87.9546 60.7851C91.0657 60.7851 93.643 59.6467 94.7813 58.9441V61.7883C93.8794 62.3896 91.2346 63.4266 87.9209 63.4266C80.8273 63.4266 75.3721 58.5726 75.3721 51.1108H75.3754ZM96.9026 54.8265C96.9026 49.9725 100.449 46.3582 104.635 46.3582C107.847 46.3582 109.857 48.5673 110.424 49.8712V46.6926H112.968V63.0922H110.424V59.9474C109.62 61.3526 107.813 63.4266 104.635 63.4266C100.449 63.4266 96.9026 59.6771 96.9026 54.8265ZM110.59 54.8603C110.59 51.5128 108.279 48.7024 105.033 48.7024C102.223 48.7024 99.5441 51.1446 99.5441 54.8265C99.5441 58.2753 102.02 61.0857 104.999 61.0857C107.979 61.0857 110.59 58.4746 110.59 54.8603ZM117.227 46.6926H119.737V50.4758C120.44 48.77 122.281 46.3582 125.226 46.3582C125.594 46.3582 125.895 46.392 126.263 46.4595V48.9355C125.996 48.9017 125.594 48.8679 125.26 48.8679C121.946 48.8679 119.805 52.1141 119.805 55.0596V63.0922H117.227V46.6926ZM129.202 69.0507V66.4734C129.938 66.8754 132.282 68.1117 134.992 68.1117C138.305 68.1117 140.883 65.6695 140.883 62.9908V59.944C140.112 61.383 138.17 63.3252 135.025 63.3252C130.742 63.3252 127.195 59.6434 127.195 54.7589C127.195 49.8745 130.742 46.3582 135.025 46.3582C138.339 46.3582 140.281 48.5673 140.815 49.7732V46.6926H143.392V63.0584C143.392 66.8078 140.045 70.4559 135.025 70.4559C132.215 70.4559 129.773 69.3176 129.202 69.0507ZM141.018 54.7589C141.018 51.4115 138.775 48.7024 135.363 48.7024C132.519 48.7024 129.84 51.0771 129.84 54.7589C129.84 58.4408 132.282 60.9844 135.363 60.9844C138.444 60.9844 141.018 58.3733 141.018 54.7589ZM146.135 54.8941C146.135 50.0401 150.151 46.3582 154.536 46.3582C158.92 46.3582 163.004 50.0401 163.004 54.8941C163.004 59.7481 158.988 63.4266 154.536 63.4266C150.084 63.4266 146.135 59.7447 146.135 54.8941ZM160.359 54.8941C160.359 51.3473 157.681 48.8038 154.536 48.8038C151.391 48.8038 148.78 51.3473 148.78 54.8941C148.78 58.4408 151.459 60.9844 154.536 60.9844C157.613 60.9844 160.359 58.4408 160.359 54.8941Z" fill="#1a1a5e"/>
<path d="M6.50436 63.4266H0.00195312V58.3192H6.50436V63.4266ZM16.9859 58.3192H10.4835V63.4266H16.9859V58.3192ZM27.4641 58.3192H20.9616V63.4266H27.4641V58.3192ZM37.9422 58.3192H31.4398V63.4266H37.9422V58.3192ZM48.4204 58.3192H41.918V63.4266H48.4204V58.3192ZM58.8985 58.3192H52.3961V63.4266H58.8985V58.3192ZM69.3767 58.3192H62.8743V63.4266H69.3767V58.3192Z" fill="#e42313"/>
<path d="M63.6276 49.0368C62.317 49.0368 61.3003 48.6078 60.8409 47.8613C60.1957 46.8176 60.4693 44.9327 61.5942 42.6932L59.3107 38.9944C49.8425 38.9944 46.2147 42.1899 43.0125 45.0104C40.4588 47.2601 38.4388 49.0368 33.014 49.0368H30.6224C29.3118 49.0368 28.2951 48.6078 27.8357 47.8613C27.1905 46.8176 27.4641 44.9327 28.589 42.6932L26.3055 38.9944C16.8373 38.9944 13.2095 42.1899 10.0073 45.0104C7.45362 47.2601 5.43365 49.0368 0.00878906 49.0368V54.1442C7.36579 54.1442 10.5613 51.327 13.3852 48.8443C15.645 46.8547 17.8 44.9564 22.6101 44.3247C22.019 47.1925 22.6777 49.226 23.4918 50.5434C24.9037 52.8302 27.5047 54.1442 30.6258 54.1442H33.0174C40.3744 54.1442 43.5698 51.327 46.3937 48.8443C48.6535 46.8547 50.8086 44.9564 55.6187 44.3247C55.0276 47.1925 55.6863 49.226 56.5003 50.5434C57.9123 52.8302 60.5132 54.1442 63.6344 54.1442H69.3835V49.0368H63.6344H63.6276Z" fill="#e42313"/>
</g>
<defs>
<clipPath id="clip0_5105_5541">
<rect width="162.999" height="69.9118" fill="white" transform="translate(0.000976562 0.544098)"/>
</clipPath>
</defs>
</svg>
